<svg width="100" height="81" viewBox="0 0 100 81" fill="none" xmlns="http://www.w3.org/2000/svg">
<g filter="url(#filter0_d_1_1726)">
<path d="M71.6078 50.2984C71.4896 50.1012 70.758 48.5183 67.2377 45.2648C63.5525 41.8579 64.0475 42.4111 68.4863 36.5202C71.1898 32.9326 72.2706 30.7416 71.9323 29.805C71.6106 28.9122 69.6222 29.1477 69.6222 29.1477L63.0107 29.1861C63.0107 29.1861 62.5211 29.1203 62.1554 29.3367C61.8006 29.5503 61.5723 30.0433 61.5723 30.0433C61.5723 30.0433 60.5245 32.8203 59.1274 35.181C56.1819 40.1626 55.0021 40.4255 54.5208 40.1161C53.4015 39.3958 53.682 37.2186 53.682 35.674C53.682 30.8457 54.4163 28.8328 52.2491 28.3124C51.5286 28.1399 51.0006 28.0249 49.1607 28.0057C46.801 27.9811 44.8016 28.0139 43.6713 28.5644C42.9177 28.9314 42.3374 29.7502 42.6922 29.7968C43.1295 29.8543 44.1195 30.0624 44.6448 30.7745C45.3241 31.692 45.2994 33.7569 45.2994 33.7569C45.2994 33.7569 45.6899 39.4396 44.3891 40.1462C43.4953 40.6309 42.2714 39.6423 39.645 35.1208C38.3001 32.8066 37.2825 30.2459 37.2825 30.2459C37.2825 30.2459 37.0873 29.7694 36.738 29.5147C36.3145 29.2052 35.7204 29.1067 35.7204 29.1067L29.4335 29.145C29.4335 29.145 28.4901 29.1724 28.1436 29.5804C27.8356 29.9447 28.1189 30.6951 28.1189 30.6951C28.1189 30.6951 33.0417 42.1619 38.6136 47.9432C43.7263 53.2425 49.5292 52.8947 49.5292 52.8947H52.1584C52.1584 52.8947 52.9532 52.807 53.3575 52.3716C53.7315 51.9718 53.7178 51.2214 53.7178 51.2214C53.7178 51.2214 53.6655 47.7077 55.3046 47.19C56.919 46.6807 58.9926 50.586 61.1901 52.0895C62.8512 53.2261 64.1135 52.9768 64.1135 52.9768L69.9907 52.8947C69.9907 52.8947 73.0654 52.7057 71.6078 50.2984Z" fill="white"/>
</g>
<defs>
<filter id="filter0_d_1_1726" x="0" y="0" width="100" height="81" filterUnits="userSpaceOnUse" color-interpolation-filters="sRGB">
<feFlood flood-opacity="0" result="BackgroundImageFix"/>
<feColorMatrix in="SourceAlpha" type="matrix" values="0 0 0 0 0 0 0 0 0 0 0 0 0 0 0 0 0 0 127 0" result="hardAlpha"/>
<feOffset/>
<feGaussianBlur stdDeviation="14"/>
<feComposite in2="hardAlpha" operator="out"/>
<feColorMatrix type="matrix" values="0 0 0 0 0.984314 0 0 0 0 0.803922 0 0 0 0 0.137255 0 0 0 1 0"/>
<feBlend mode="normal" in2="BackgroundImageFix" result="effect1_dropShadow_1_1726"/>
<feBlend mode="normal" in="SourceGraphic" in2="effect1_dropShadow_1_1726" result="shape"/>
</filter>
</defs>
</svg>
